<svg data-name="Layer 1" xmlns="http://www.w3.org/2000/svg" viewBox="0 0 1000 1000"><path d="M293 3.5C239.6 6 203.3 14.5 171.5 27 138.8 39.8 111 57 83.2 84.8s-44.8 55.7-57.5 88.6C13.4 205.2 5 241.6 2.7 294.8S-.2 365.2 0 501 .9 653.8 3.5 707c2.5 53.2 11 89.5 23.5 121.3 12.8 32.9 30 60.7 57.8 88.4s55.7 44.8 88.7 57.5c31.8 12.3 68.2 20.7 121.4 23s70.3 2.9 206 2.6 153-.8 206.2-3.3 89.5-11.1 121.3-23.5c32.9-12.9 60.7-30 88.4-57.9s44.8-55.7 57.5-88.6c12.3-31.8 20.7-68.2 23-121.4 2.3-53.4 2.9-70.4 2.6-206.2s-.8-152.7-3.4-206-11-89.6-23.4-121.4c-12.9-32.9-30-60.7-57.9-88.4s-55.7-44.8-88.6-57.5C794.8 13.4 758.4 5 705.2 2.7S634.8-.2 499 0 346.2.9 293 3.5m5.8 903.9c-48.8-2.1-75.3-10.2-92.9-17-23.4-9-40-19.9-57.6-37.3S120 819 110.8 795.7c-6.8-17.7-15-44.1-17.4-92.9-2.4-52.6-3-68.5-3.3-202s.3-149.2 2.6-202c2-48.7 10.2-75.2 17-92.8 9-23.4 19.8-40 37.3-57.6s34-28.4 57.4-37.5c17.6-6.9 44-15 92.8-17.4 52.7-2.5 68.5-3 202-3.2s149.3.2 202 2.5c48.8 2.1 75.3 10.2 92.9 17 23.4 9 40 19.8 57.6 37.3s28.4 34 37.5 57.4c6.9 17.6 15 44 17.3 92.8 2.6 52.7 3.1 68.5 3.4 202s-.3 149.3-2.6 202c-2.1 48.7-10.2 75.2-17 92.9-9 23.3-19.8 40-37.3 57.5s-34 28.4-57.4 37.5c-17.6 6.9-44 15.1-92.8 17.4-52.7 2.5-68.5 3-202 3.3s-149.3-.2-202-2.5m407.6-674.6a60 60 0 1 0 59.9-60.1 60 60 0 0 0-60 60m-463 267.8a256.7 256.7 0 1 0 513.4-1 256.7 256.7 0 0 0-513.4 1m90-.2a166.7 166.7 0 1 1 167 166.4 166.7 166.7 0 0 1-167-166.4"/></svg>
